<?xml version="1.0" standalone="no"?><!DOCTYPE svg PUBLIC "-//W3C//DTD SVG 1.1//EN" "http://www.w3.org/Graphics/SVG/1.1/DTD/svg11.dtd"><svg t="1513791039392" class="icon" style="" viewBox="0 0 1024 1024" version="1.1" xmlns="http://www.w3.org/2000/svg" p-id="14193" xmlns:xlink="http://www.w3.org/1999/xlink" width="128" height="128"><defs><style type="text/css"></style></defs><path d="M182.06515711545944 728.3206432014704c-8.873669430613518 0-16.090739518404007-7.221143692731857-16.090739518404007-16.09481312334537V266.306628368795c0-6.730953231453896 4.243338480591774-12.804698199033737 10.560141876339912-15.11511113494635 12.154958210885521-4.447018727660179 77.36590504646301-26.628476567566388 167.57181286811831-26.628476567566388 57.73656070232393 0 114.57081791013479 8.938168175518513 168.92424970865247 26.56533569097519a16.05475600808859 16.05475600808859 0 0 1 11.12773083150387 15.315396711230278V708.802644059062c0 8.877064101397991-7.2143543511629105 16.098886728286743-16.08259230852127 16.099565662443638-1.1908505111932755 0-2.3857746273279186-0.13307109475135803-3.5508256405591965-0.3958186134696006-19.932148978114128-4.496580921113491-91.20937250554562-19.16699018329382-171.4634634554386-19.16699018329382-56.91708717495203 0-105.84244038909674 7.396308705210686-145.41683346033093 21.983888000249866a16.104318201541897 16.104318201541897 0 0 1-5.580159835517406 0.9973542764782906z m8.225287310779095-456.17789682000875V700.6758022010326c40.13179801404476-13.045040890574453 88.09034898877142-19.653107039630413 142.7696691825986-19.653107039630413 72.48233165591955 0 137.8507912158966 11.599590070545675 166.78153350949287 17.596615478396412V272.45166142284864c-50.2017494291067-15.644679777324196-102.56115160882474-23.571236059069637-155.73595371097326-23.571236059069637-76.85534656047821 0-134.21441987156865 16.690238378942013-153.8152489811182 23.26299995183945z" fill="#ffffff" p-id="14194"></path><path d="M516.810248501599 728.3206432014704c-8.872311562299727 0-16.090739518404007-7.221143692731857-16.090739518404007-16.09481312334537V266.306628368795c0-6.73163216561079 4.244696348905563-12.806735001504421 10.562178678810598-15.11511113494635 12.154279276728632-4.44566085934639 77.36454717814922-26.628476567566388 167.56977606564757-26.628476567566388 57.73723963648081 0 114.5701389759779 8.938168175518513 168.92424970865247 26.56533569097519a16.05475600808859 16.05475600808859 0 0 1 11.129088699817657 15.315396711230278V708.802644059062c0 8.877064101397991-7.215033285319805 16.098886728286743-16.08259230852127 16.099565662443638-1.1908505111932755 0-2.3857746273279186-0.13307109475135803-3.5508256405591965-0.39649754762649536-19.933506846427917-4.495901986956596-91.21073037385939-19.166311249136925-171.4648213237524-19.166311249136925-56.917766109108925 0-105.8431193232536 7.396308705210686-145.41683346033093 21.983888000249866a16.079876571893692 16.079876571893692 0 0 1-5.579480901360512 0.9973542764782906z m8.225966244935991-456.17789682000875V700.6758022010326c40.133834816515446-13.04571982473135 88.09034898877142-19.653107039630413 142.77034811675549-19.653107039630413 72.48097378760576 0 137.84943334758282 11.599590070545675 166.78153350949287 17.596615478396412V272.45166142284864c-50.20310729742051-15.644679777324196-102.56115160882474-23.571914993226528-155.73595371097326-23.571914993226528-76.8560254946351 0-134.21509880572557 16.690917313098907-153.81592791527513 23.26367888599634zM242.83859030157328 368.1725514009595l-0.006789341568946838-0.02308376133441925c-1.7699813470244408-6.719411350786688 2.4380525574088097-13.548810034990307 9.235541336238382-14.994260855019096 12.321976013481617-2.6193279772996907 32.92287513613701-6.422717124223709 57.90900997817515-8.798986673355103 48.75426180660725-4.635762423276901 91.58685989677906-1.9037313759326935 127.56222300231457 8.11733677983284 6.7526791244745255 1.8806476145982742 10.556068271398544 9.023713879287245 8.292501792311668 15.657579526305199-2.072107046842575 6.075102835893631-8.5185868665576 9.524088352918625-14.70299810171127 7.80570600181818-66.26193691045044-18.419483676552773-145.1472966000438-5.043801851570606-174.01082441210747 1.0353745892643929-6.345997564494609 1.3361424207687378-12.626817449927326-2.527671866118908-14.278664253652092-8.798986673355103zM242.83859030157328 467.3784104064107l-0.006789341568946838-0.02308376133441925c-1.7699813470244408-6.719411350786688 2.4380525574088097-13.548810034990307 9.235541336238382-14.994260855019096 12.321976013481617-2.620006911456585 32.92287513613701-6.422717124223709 57.90900997817515-8.798986673355103 48.75426180660725-4.635762423276901 91.58685989677906-1.9037313759326935 127.56222300231457 8.116657845675945 6.7526791244745255 1.8806476145982742 10.556068271398544 9.024392813444138 8.292501792311668 15.658258460462093-2.072107046842575 6.075102835893631-8.5185868665576 9.524088352918625-14.70299810171127 7.80570600181818-66.26193691045044-18.419483676552773-145.1472966000438-5.043801851570606-174.01082441210747 1.0353745892643929-6.345997564494609 1.3375002890825272-12.626817449927326-2.527671866118908-14.278664253652092-8.798986673355103zM242.83859030157328 559.0813680440187l-0.006789341568946838-0.022404827177524567c-1.7699813470244408-6.720090284943581 2.4380525574088097-13.549488969147209 9.235541336238382-14.994260855019096 12.321976013481617-2.6206858456134796 32.92287513613701-6.422717124223709 57.90900997817515-8.798986673355103 48.75426180660725-4.637120291590691 91.58685989677906-1.9037313759326935 127.56222300231457 8.116657845675945 6.7526791244745255 1.8806476145982742 10.556068271398544 9.023713879287245 8.292501792311668 15.657579526305199-2.072107046842575 6.075102835893631-8.5185868665576 9.524088352918625-14.70299810171127 7.80570600181818-66.26193691045044-18.418804742395878-145.1472966000438-5.0431229174137115-174.01082441210747 1.0360535234212875-6.345997564494609 1.3361424207687378-12.626817449927326-2.5283508002758026-14.278664253652092-8.800344541668894z" fill="#ffffff" p-id="14195"></path><path d="M578.194043494761 368.1725514009595l-0.006789341568946838-0.02308376133441925c-1.7699813470244408-6.719411350786688 2.4380525574088097-13.548810034990307 9.235541336238382-14.994260855019096 12.32129707932472-2.6193279772996907 32.92287513613701-6.422717124223709 57.90968891233206-8.798986673355103 48.75426180660725-4.635762423276901 91.58685989677906-1.9037313759326935 127.56222300231457 8.11733677983284 6.752000190317631 1.8806476145982742 10.556068271398544 9.023713879287245 8.292501792311668 15.657579526305199-2.072107046842575 6.075102835893631-8.519265800714493 9.524088352918625-14.70299810171127 7.80570600181818-66.26193691045044-18.419483676552773-145.1472966000438-5.043801851570606-174.01082441210747 1.0353745892643929-6.346676498651505 1.3361424207687378-12.62817531824112-2.527671866118908-14.279343187808994-8.798986673355103zM578.194043494761 467.3784104064107l-0.006789341568946838-0.02308376133441925c-1.7699813470244408-6.719411350786688 2.4380525574088097-13.548810034990307 9.235541336238382-14.994260855019096 12.32129707932472-2.620006911456585 32.92287513613701-6.422717124223709 57.90968891233206-8.798986673355103 48.75426180660725-4.635762423276901 91.58685989677906-1.9037313759326935 127.56222300231457 8.116657845675945 6.752000190317631 1.8806476145982742 10.556068271398544 9.024392813444138 8.292501792311668 15.658258460462093-2.072107046842575 6.075102835893631-8.519265800714493 9.524088352918625-14.70299810171127 7.80570600181818-66.26193691045044-18.419483676552773-145.1472966000438-5.043801851570606-174.01082441210747 1.0353745892643929-6.346676498651505 1.3375002890825272-12.62817531824112-2.527671866118908-14.279343187808994-8.798986673355103zM578.194043494761 559.0813680440187l-0.006789341568946838-0.022404827177524567c-1.7699813470244408-6.720090284943581 2.4380525574088097-13.549488969147209 9.235541336238382-14.994260855019096 12.32129707932472-2.6206858456134796 32.92287513613701-6.422717124223709 57.90968891233206-8.798986673355103 48.75426180660725-4.637120291590691 91.58685989677906-1.9037313759326935 127.56222300231457 8.116657845675945 6.752000190317631 1.8806476145982742 10.556068271398544 9.023713879287245 8.292501792311668 15.657579526305199-2.072107046842575 6.075102835893631-8.519265800714493 9.524088352918625-14.70299810171127 7.80570600181818-66.26193691045044-18.418804742395878-145.1472966000438-5.0431229174137115-174.01082441210747 1.0360535234212875-6.346676498651505 1.3361424207687378-12.62817531824112-2.5283508002758026-14.279343187808994-8.800344541668894z" fill="#ffffff" p-id="14196"></path></svg>