<?xml version="1.0" standalone="no"?><!DOCTYPE svg PUBLIC "-//W3C//DTD SVG 1.1//EN" "http://www.w3.org/Graphics/SVG/1.1/DTD/svg11.dtd"><svg t="1513826395283" class="icon" style="" viewBox="0 0 1024 1024" version="1.1" xmlns="http://www.w3.org/2000/svg" p-id="2420" xmlns:xlink="http://www.w3.org/1999/xlink" width="128" height="128"><defs><style type="text/css"></style></defs><path d="M555.04 76c-17.696-37.344-67.904-37.184-85.568 0.512L370.496 285.44A79.232 79.232 0 0 1 310.4 330.72l-220.992 33.504c-39.072 5.984-54.944 57.12-26.176 86.24l160.416 162.368c18.56 19.232 26.944 46.208 22.4 72.768l-37.792 229.696c-6.528 41.6 34.368 72.64 69.12 53.696l197.664-108.544a77.44 77.44 0 0 1 74.464 0.064l198.016 108.992c34.912 19.04 76.16-12.16 69.216-53.568l-37.76-229.696a84.288 84.288 0 0 1 22.4-72.96l159.84-163.328c28.736-29.12 12.896-80.288-26.176-86.24l-221.024-33.536a79.136 79.136 0 0 1-59.968-45.12l-99.04-209.056z m28.928-13.696l99.104 209.216c6.72 14.56 20.16 24.64 35.808 27.04l221.024 33.504c65.28 9.984 90.976 92.896 44.16 140.32l-159.68 163.232c-11.52 11.904-16.704 28.64-13.824 45.344l37.76 229.76c11.2 67.104-57.216 118.944-116.128 86.848l-198.016-108.992a45.376 45.376 0 0 0-43.776-0.032L292.8 997.088c-58.752 32-126.688-19.616-116.128-86.88l37.824-229.888a52.16 52.16 0 0 0-13.696-45.12l-160.32-162.24c-46.848-47.488-21.12-130.368 44.16-140.352L305.6 299.104c15.68-2.432 29.12-12.48 35.904-27.2l99.008-209.024a78.56 78.56 0 0 1 143.456-0.576z" fill="#ff9000" p-id="2421"></path></svg>