<?xml version="1.0" standalone="no"?><!DOCTYPE svg PUBLIC "-//W3C//DTD SVG 1.1//EN" "http://www.w3.org/Graphics/SVG/1.1/DTD/svg11.dtd"><svg t="1513913778067" class="icon" style="" viewBox="0 0 1024 1024" version="1.1" xmlns="http://www.w3.org/2000/svg" p-id="3534" xmlns:xlink="http://www.w3.org/1999/xlink" width="128" height="128"><defs><style type="text/css"></style></defs><path d="M834.661 722.663l-272.724-272.721 271.115-271.123c10.207-10.189 10.207-26.719 0-36.906-10.189-10.189-26.704-10.189-36.909 0l-271.117 271.117-272.127-272.128c-10.255-10.255-26.873-10.255-37.125 0-10.255 10.255-10.255 26.891 0 37.132l272.127 272.124-269.994 269.994c-10.189 10.189-10.189 26.719 0 36.925 10.207 10.187 26.719 10.187 36.909 0l269.995-270.004 272.723 272.721c10.254 10.255 26.87 10.255 37.132 0 10.253-10.254 10.253-26.868 0-37.132z" p-id="3535"></path></svg>