<?xml version="1.0" standalone="no"?><!DOCTYPE svg PUBLIC "-//W3C//DTD SVG 1.1//EN" "http://www.w3.org/Graphics/SVG/1.1/DTD/svg11.dtd"><svg t="1514344368782" class="icon" style="" viewBox="0 0 1024 1024" version="1.1" xmlns="http://www.w3.org/2000/svg" p-id="1973" xmlns:xlink="http://www.w3.org/1999/xlink" width="128" height="128"><defs><style type="text/css"></style></defs><path d="M512 33.129412C246.964706 33.129412 33.129412 246.964706 33.129412 512S246.964706 990.870588 512 990.870588 990.870588 777.035294 990.870588 512 777.035294 33.129412 512 33.129412z m183.717647 605.364706c9.035294 9.035294 9.035294 21.082353 0 27.105882l-27.105882 27.105882c-9.035294 9.035294-21.082353 9.035294-27.105883 0l-126.494117-126.494117-126.494118 126.494117c-9.035294 9.035294-21.082353 9.035294-27.105882 0l-27.105883-27.105882c-9.035294-9.035294-9.035294-21.082353 0-27.105882l126.494118-126.494118-126.494118-126.494118c-9.035294-9.035294-9.035294-21.082353 0-27.105882l27.105883-27.105882c9.035294-9.035294 21.082353-9.035294 27.105882 0l126.494118 126.494117 126.494117-126.494117c9.035294-9.035294 21.082353-9.035294 27.105883 0l27.105882 27.105882c9.035294 9.035294 9.035294 21.082353 0 27.105882L569.223529 512l126.494118 126.494118z" p-id="1974"></path></svg>