<?xml version="1.0" standalone="no"?><!DOCTYPE svg PUBLIC "-//W3C//DTD SVG 1.1//EN" "http://www.w3.org/Graphics/SVG/1.1/DTD/svg11.dtd"><svg t="1513826706250" class="icon" style="" viewBox="0 0 1024 1024" version="1.1" xmlns="http://www.w3.org/2000/svg" p-id="4280" xmlns:xlink="http://www.w3.org/1999/xlink" width="128" height="128"><defs><style type="text/css"></style></defs><path d="M525.36832 956.61568c-220.11904 0-399.19616-179.07712-399.19616-399.19616h31.872c0 202.5472 164.78208 367.32928 367.32928 367.32928s367.32416-164.7872 367.32416-367.32928-164.78208-367.32416-367.32416-367.32416v-31.872c220.11392 0 399.20128 179.08224 399.20128 399.19616-0.00512 220.11904-179.08736 399.19616-399.2064 399.19616z" fill="#d81e06" p-id="4281"></path><path d="M529.84832 280.92928L344.92416 174.16192l184.92416-106.77248z" fill="#d81e06" p-id="4282"></path><path d="M516.50048 586.8032c0 7.38816-8.07936 13.37856-18.05312 13.37856-9.97376 0-18.05312-5.9904-18.05312-13.37856V351.0528c0-7.38816 8.08448-13.37856 18.05312-13.37856 9.97376 0 18.05312 5.9904 18.05312 13.37856v235.7504z" fill="#d81e06" p-id="4283"></path><path d="M675.74784 739.70688c5.22752 5.22752 3.7376 15.17568-3.30752 22.23104-7.04512 7.05024-16.9984 8.5248-22.2208 3.3024l-166.70208-166.69696c-5.22752-5.22752-3.74784-15.17568 3.3024-22.22592 7.05024-7.05536 17.00352-8.52992 22.22592-3.30752l166.70208 166.69696z" fill="#d81e06" p-id="4284"></path></svg>