<?xml version="1.0" standalone="no"?><!DOCTYPE svg PUBLIC "-//W3C//DTD SVG 1.1//EN" "http://www.w3.org/Graphics/SVG/1.1/DTD/svg11.dtd"><svg t="1513788742776" class="icon" style="" viewBox="0 0 1024 1024" version="1.1" xmlns="http://www.w3.org/2000/svg" p-id="3558" xmlns:xlink="http://www.w3.org/1999/xlink" width="128" height="128"><defs><style type="text/css"></style></defs><path d="M833.1 64v895.9H192V64h641.1m34-64H158c-16.6 0-30 13.4-30 30v963.9c0 16.6 13.4 30 30 30h709.1c16.6 0 30-13.4 30-30V30c0-16.6-13.4-30-30-30z" fill="#FE7171" p-id="3559"></path><path d="M733.9 162.2v541.6H294.2V162.2h439.7m34-64H260.2c-16.6 0-30 13.4-30 30v609.6c0 16.6 13.4 30 30 30H768c16.6 0 30-13.4 30-30V128.2c-0.1-16.5-13.5-30-30.1-30zM513 832.8c17 0 30.9 13.9 30.9 30.9S530 894.6 513 894.6s-30.9-13.9-30.9-30.9c0-17.1 13.9-30.9 30.9-30.9m0-33c-35.3 0-63.9 28.6-63.9 63.9s28.6 63.9 63.9 63.9 63.9-28.6 63.9-63.9-28.6-63.9-63.9-63.9z" fill="#FE7171" p-id="3560"></path></svg>