<svg viewBox="0 0 1428 1024" version="1.1" xmlns="http://www.w3.org/2000/svg" p-id="1007"><defs><style type="text/css"></style></defs><path d="M713.983 245.825c-145.6 0-264.05 118.452-264.05 264.05s118.45 264.052 264.05 264.052c145.598 0 264.05-118.454 264.05-264.051 0.002-145.6-118.451-264.051-264.05-264.051z m0 469.201c-113.121 0-205.152-92.03-205.152-205.152s92.031-205.152 205.152-205.152c113.122 0 205.152 92.032 205.152 205.152s-92.03 205.152-205.152 205.152z" fill="#8A8A8A" p-id="1008"></path><path d="M1421.26 503.998C1205.9 242.202 971.468 109.46 724.478 109.46c-95.684 0-193.136 20.256-289.65 60.202-76.624 31.715-152.822 75.853-226.475 131.185C83.278 394.81 9.409 487.728 6.327 491.639c-9.166 11.622-8.283 28.243 2.066 38.826 248.79 254.448 499.536 383.466 745.275 383.466 95.672 0 190.513-19.817 281.885-58.9 72.682-31.088 143.287-74.359 209.852-128.608 113.076-92.153 174.98-183.454 177.56-187.297a29.451 29.451 0 0 0-1.704-35.128zM1206.789 681.91c-62.195 50.488-127.934 90.657-195.393 119.393-83.697 35.65-170.41 53.728-257.727 53.728-223.219 0-453.343-116.622-684.307-346.71 27.752-31.5 88.75-96.063 174.368-160.383 69.698-52.36 141.572-94.03 213.624-123.853 89.335-36.977 179.208-55.725 267.124-55.725 223.08 0 437.204 119.604 636.7 355.55-22.999 30.138-76.106 94.452-154.389 158z" fill="#8A8A8A" p-id="1009"></path></svg>