<?xml version="1.0" standalone="no"?><!DOCTYPE svg PUBLIC "-//W3C//DTD SVG 1.1//EN" "http://www.w3.org/Graphics/SVG/1.1/DTD/svg11.dtd"><svg t="1513826839473" class="icon" style="" viewBox="0 0 1024 1024" version="1.1" xmlns="http://www.w3.org/2000/svg" p-id="6201" xmlns:xlink="http://www.w3.org/1999/xlink" width="128" height="128"><defs><style type="text/css"></style></defs><path d="M232.612346 279.387654c-31.225679-31.225679-84.321975-20.22716-84.321976-40.454321s53.096296-9.228642 84.321976-40.454321S252.839506 113.777778 273.066667 113.777778s9.228642 53.096296 40.454321 84.321975 84.321975 20.22716 84.321975 40.454321-53.096296 9.228642-84.321975 40.454321-20.22716 84.321975-40.454321 84.321975-9.228642-52.717037-40.454321-83.942716zM43.741235 539.685926A25.283951 25.283951 0 0 1 84.321975 518.320988 350.309136 350.309136 0 0 0 616.043457 96.963951a25.283951 25.283951 0 0 1 30.340741-34.512593A469.017284 469.017284 0 1 1 43.741235 539.685926z m638.293333-410.232099a422.494815 422.494815 0 0 1 14.538272 109.479506A400.877037 400.877037 0 0 1 101.135802 588.98963a418.449383 418.449383 0 1 0 581.530865-459.535803z" p-id="6202" fill="#1296db"></path></svg>